<?xml version="1.0" encoding="UTF-8" standalone="no"?>
<!DOCTYPE svg PUBLIC "-//W3C//DTD SVG 1.1//EN"
 "http://www.w3.org/Graphics/SVG/1.1/DTD/svg11.dtd">
<!-- Generated by graphviz version 2.42.4 (0)
 -->
<!-- Title: G Pages: 1 -->
<svg width="1292pt" height="330pt"
 viewBox="0.00 0.00 1291.80 329.80" xmlns="http://www.w3.org/2000/svg" xmlns:xlink="http://www.w3.org/1999/xlink">
<g id="graph0" class="graph" transform="scale(1 1) rotate(0) translate(14.4 315.4)">
<title>G</title>
<polygon fill="white" stroke="transparent" points="-14.4,14.4 -14.4,-315.4 1277.4,-315.4 1277.4,14.4 -14.4,14.4"/>
<text text-anchor="middle" x="631.5" y="-282.6" font-family="Helvetica,sans-Serif" font-size="18.00">VenomGap — End&#45;to&#45;End Scientific Pipeline</text>
<g id="clust1" class="cluster">
<title>cluster_i</title>
<path fill="white" stroke="#9cb4e5" d="M20,-8C20,-8 144,-8 144,-8 150,-8 156,-14 156,-20 156,-20 156,-253 156,-253 156,-259 150,-265 144,-265 144,-265 20,-265 20,-265 14,-265 8,-259 8,-253 8,-253 8,-20 8,-20 8,-14 14,-8 20,-8"/>
<text text-anchor="middle" x="82" y="-246.6" font-family="Helvetica,sans-Serif" font-size="18.00">Inputs</text>
</g>
<g id="clust2" class="cluster">
<title>cluster_m</title>
<path fill="white" stroke="#e7b47a" d="M192,-124C192,-124 540,-124 540,-124 546,-124 552,-130 552,-136 552,-136 552,-251 552,-251 552,-257 546,-263 540,-263 540,-263 192,-263 192,-263 186,-263 180,-257 180,-251 180,-251 180,-136 180,-136 180,-130 186,-124 192,-124"/>
<text text-anchor="middle" x="366" y="-244.6" font-family="Helvetica,sans-Serif" font-size="18.00">Model Build</text>
</g>
<g id="clust3" class="cluster">
<title>cluster_v</title>
<path fill="white" stroke="#86b892" d="M588,-65C588,-65 961,-65 961,-65 967,-65 973,-71 973,-77 973,-77 973,-192 973,-192 973,-198 967,-204 961,-204 961,-204 588,-204 588,-204 582,-204 576,-198 576,-192 576,-192 576,-77 576,-77 576,-71 582,-65 588,-65"/>
<text text-anchor="middle" x="774.5" y="-185.6" font-family="Helvetica,sans-Serif" font-size="18.00">Validation &amp; Optimisation</text>
</g>
<g id="clust4" class="cluster">
<title>cluster_o</title>
<path fill="white" stroke="#b79ad2" d="M1009,-65C1009,-65 1243,-65 1243,-65 1249,-65 1255,-71 1255,-77 1255,-77 1255,-251 1255,-251 1255,-257 1249,-263 1243,-263 1243,-263 1009,-263 1009,-263 1003,-263 997,-257 997,-251 997,-251 997,-77 997,-77 997,-71 1003,-65 1009,-65"/>
<text text-anchor="middle" x="1126" y="-244.6" font-family="Helvetica,sans-Serif" font-size="18.00">Outputs</text>
</g>
<!-- A1 -->
<g id="node1" class="node">
<title>A1</title>
<path fill="#eef4ff" stroke="#4a67a1" stroke-width="1.2" d="M136,-170C136,-170 28,-170 28,-170 22,-170 16,-164 16,-158 16,-158 16,-146 16,-146 16,-140 22,-134 28,-134 28,-134 136,-134 136,-134 142,-134 148,-140 148,-146 148,-146 148,-158 148,-158 148,-164 142,-170 136,-170"/>
<text text-anchor="middle" x="82" y="-149.2" font-family="Helvetica,sans-Serif" font-size="11.00">Curated venom data</text>
</g>
<!-- B1 -->
<g id="node5" class="node">
<title>B1</title>
<path fill="#fff3e6" stroke="#bd6b22" stroke-width="1.2" d="M267,-168C267,-168 200,-168 200,-168 194,-168 188,-162 188,-156 188,-156 188,-144 188,-144 188,-138 194,-132 200,-132 200,-132 267,-132 267,-132 273,-132 279,-138 279,-144 279,-144 279,-156 279,-156 279,-162 273,-168 267,-168"/>
<text text-anchor="middle" x="233.5" y="-153.2" font-family="Helvetica,sans-Serif" font-size="11.00">Normalize</text>
<text text-anchor="middle" x="233.5" y="-141.2" font-family="Helvetica,sans-Serif" font-size="11.00">compositions</text>
</g>
<!-- A1&#45;&gt;B1 -->
<g id="edge1" class="edge">
<title>A1&#45;&gt;B1</title>
<path fill="none" stroke="#667085" stroke-width="1.2" d="M148.14,-151.13C159.01,-150.98 170.15,-150.83 180.63,-150.69"/>
<polygon fill="#667085" stroke="#667085" stroke-width="1.2" points="180.8,-153.14 187.77,-150.6 180.74,-148.24 180.8,-153.14"/>
</g>
<!-- A2 -->
<g id="node2" class="node">
<title>A2</title>
<path fill="#eef4ff" stroke="#4a67a1" stroke-width="1.2" d="M124.5,-229C124.5,-229 39.5,-229 39.5,-229 33.5,-229 27.5,-223 27.5,-217 27.5,-217 27.5,-205 27.5,-205 27.5,-199 33.5,-193 39.5,-193 39.5,-193 124.5,-193 124.5,-193 130.5,-193 136.5,-199 136.5,-205 136.5,-205 136.5,-217 136.5,-217 136.5,-223 130.5,-229 124.5,-229"/>
<text text-anchor="middle" x="82" y="-208.2" font-family="Helvetica,sans-Serif" font-size="11.00">Toxin sequences</text>
</g>
<!-- B2 -->
<g id="node6" class="node">
<title>B2</title>
<path fill="#fff3e6" stroke="#bd6b22" stroke-width="1.2" d="M257.5,-227C257.5,-227 209.5,-227 209.5,-227 203.5,-227 197.5,-221 197.5,-215 197.5,-215 197.5,-203 197.5,-203 197.5,-197 203.5,-191 209.5,-191 209.5,-191 257.5,-191 257.5,-191 263.5,-191 269.5,-197 269.5,-203 269.5,-203 269.5,-215 269.5,-215 269.5,-221 263.5,-227 257.5,-227"/>
<text text-anchor="middle" x="233.5" y="-212.2" font-family="Helvetica,sans-Serif" font-size="11.00">Sequence</text>
<text text-anchor="middle" x="233.5" y="-200.2" font-family="Helvetica,sans-Serif" font-size="11.00">identity</text>
</g>
<!-- A2&#45;&gt;B2 -->
<g id="edge2" class="edge">
<title>A2&#45;&gt;B2</title>
<path fill="none" stroke="#667085" stroke-width="1.2" d="M136.55,-210.28C153.99,-210.05 173.1,-209.79 189.65,-209.57"/>
<polygon fill="#667085" stroke="#667085" stroke-width="1.2" points="190.09,-212.02 197.06,-209.47 190.03,-207.12 190.09,-212.02"/>
</g>
<!-- A3 -->
<g id="node3" class="node">
<title>A3</title>
<path fill="#eef4ff" stroke="#4a67a1" stroke-width="1.2" d="M121,-111C121,-111 43,-111 43,-111 37,-111 31,-105 31,-99 31,-99 31,-87 31,-87 31,-81 37,-75 43,-75 43,-75 121,-75 121,-75 127,-75 133,-81 133,-87 133,-87 133,-99 133,-99 133,-105 127,-111 121,-111"/>
<text text-anchor="middle" x="82" y="-90.2" font-family="Helvetica,sans-Serif" font-size="11.00">Species ranges</text>
</g>
<!-- B3 -->
<g id="node7" class="node">
<title>B3</title>
<path fill="#fff3e6" stroke="#bd6b22" stroke-width="1.2" d="M395,-168C395,-168 331,-168 331,-168 325,-168 319,-162 319,-156 319,-156 319,-144 319,-144 319,-138 325,-132 331,-132 331,-132 395,-132 395,-132 401,-132 407,-138 407,-144 407,-144 407,-156 407,-156 407,-162 401,-168 395,-168"/>
<text text-anchor="middle" x="363" y="-153.2" font-family="Helvetica,sans-Serif" font-size="11.00">Spatial</text>
<text text-anchor="middle" x="363" y="-141.2" font-family="Helvetica,sans-Serif" font-size="11.00">interpolation</text>
</g>
<!-- A3&#45;&gt;B3 -->
<g id="edge3" class="edge">
<title>A3&#45;&gt;B3</title>
<path fill="none" stroke="#667085" stroke-width="1.2" d="M133.05,-97.44C172.96,-101.63 230.07,-109.08 279,-121 289.93,-123.66 301.45,-127.2 312.31,-130.88"/>
<polygon fill="#667085" stroke="#667085" stroke-width="1.2" points="311.55,-133.21 318.97,-133.18 313.16,-128.58 311.55,-133.21"/>
</g>
<!-- A4 -->
<g id="node4" class="node">
<title>A4</title>
<path fill="#eef4ff" stroke="#4a67a1" stroke-width="1.2" d="M127.5,-52C127.5,-52 36.5,-52 36.5,-52 30.5,-52 24.5,-46 24.5,-40 24.5,-40 24.5,-28 24.5,-28 24.5,-22 30.5,-16 36.5,-16 36.5,-16 127.5,-16 127.5,-16 133.5,-16 139.5,-22 139.5,-28 139.5,-28 139.5,-40 139.5,-40 139.5,-46 133.5,-52 127.5,-52"/>
<text text-anchor="middle" x="82" y="-31.2" font-family="Helvetica,sans-Serif" font-size="11.00">Snakebite burden</text>
</g>
<!-- C2 -->
<g id="node11" class="node">
<title>C2</title>
<path fill="#eef9f0" stroke="#448a52" stroke-width="1.2" d="M806,-109C806,-109 718,-109 718,-109 712,-109 706,-103 706,-97 706,-97 706,-85 706,-85 706,-79 712,-73 718,-73 718,-73 806,-73 806,-73 812,-73 818,-79 818,-85 818,-85 818,-97 818,-97 818,-103 812,-109 806,-109"/>
<text text-anchor="middle" x="762" y="-94.2" font-family="Helvetica,sans-Serif" font-size="11.00">Burden&#45;weighted</text>
<text text-anchor="middle" x="762" y="-82.2" font-family="Helvetica,sans-Serif" font-size="11.00">objective</text>
</g>
<!-- A4&#45;&gt;C2 -->
<g id="edge9" class="edge">
<title>A4&#45;&gt;C2</title>
<path fill="none" stroke="#667085" stroke-width="1.2" d="M139.64,-34C196.01,-34 284.98,-34 362,-34 362,-34 362,-34 496.5,-34 568.43,-34 648.94,-54.39 702.04,-70.78"/>
<polygon fill="#667085" stroke="#667085" stroke-width="1.2" points="701.61,-73.22 709.02,-72.96 703.07,-68.54 701.61,-73.22"/>
</g>
<!-- B1&#45;&gt;B3 -->
<g id="edge4" class="edge">
<title>B1&#45;&gt;B3</title>
<path fill="none" stroke="#667085" stroke-width="1.2" d="M279.09,-150C289.7,-150 301.08,-150 311.91,-150"/>
<polygon fill="#667085" stroke="#667085" stroke-width="1.2" points="311.93,-152.45 318.93,-150 311.93,-147.55 311.93,-152.45"/>
</g>
<!-- B4 -->
<g id="node8" class="node">
<title>B4</title>
<path fill="#fff3e6" stroke="#bd6b22" stroke-width="1.2" d="M386.5,-227C386.5,-227 339.5,-227 339.5,-227 333.5,-227 327.5,-221 327.5,-215 327.5,-215 327.5,-203 327.5,-203 327.5,-197 333.5,-191 339.5,-191 339.5,-191 386.5,-191 386.5,-191 392.5,-191 398.5,-197 398.5,-203 398.5,-203 398.5,-215 398.5,-215 398.5,-221 392.5,-227 386.5,-227"/>
<text text-anchor="middle" x="363" y="-212.2" font-family="Helvetica,sans-Serif" font-size="11.00">Cross&#45;</text>
<text text-anchor="middle" x="363" y="-200.2" font-family="Helvetica,sans-Serif" font-size="11.00">reactivity</text>
</g>
<!-- B2&#45;&gt;B4 -->
<g id="edge5" class="edge">
<title>B2&#45;&gt;B4</title>
<path fill="none" stroke="#667085" stroke-width="1.2" d="M269.68,-209C285.27,-209 303.75,-209 320.06,-209"/>
<polygon fill="#667085" stroke="#667085" stroke-width="1.2" points="320.38,-211.45 327.38,-209 320.38,-206.55 320.38,-211.45"/>
</g>
<!-- B5 -->
<g id="node9" class="node">
<title>B5</title>
<path fill="#fff3e6" stroke="#bd6b22" stroke-width="1.2" d="M532,-168C532,-168 459,-168 459,-168 453,-168 447,-162 447,-156 447,-156 447,-144 447,-144 447,-138 453,-132 459,-132 459,-132 532,-132 532,-132 538,-132 544,-138 544,-144 544,-144 544,-156 544,-156 544,-162 538,-168 532,-168"/>
<text text-anchor="middle" x="495.5" y="-153.2" font-family="Helvetica,sans-Serif" font-size="11.00">Stoichiometric</text>
<text text-anchor="middle" x="495.5" y="-141.2" font-family="Helvetica,sans-Serif" font-size="11.00">engine</text>
</g>
<!-- B3&#45;&gt;B5 -->
<g id="edge6" class="edge">
<title>B3&#45;&gt;B5</title>
<path fill="none" stroke="#667085" stroke-width="1.2" d="M407.09,-150C417.57,-150 428.91,-150 439.84,-150"/>
<polygon fill="#667085" stroke="#667085" stroke-width="1.2" points="439.95,-152.45 446.95,-150 439.95,-147.55 439.95,-152.45"/>
</g>
<!-- B4&#45;&gt;B5 -->
<g id="edge7" class="edge">
<title>B4&#45;&gt;B5</title>
<path fill="none" stroke="#667085" stroke-width="1.2" d="M398.63,-193.34C413.83,-186.47 431.89,-178.3 448.22,-170.92"/>
<polygon fill="#667085" stroke="#667085" stroke-width="1.2" points="449.25,-173.15 454.62,-168.03 447.23,-168.68 449.25,-173.15"/>
</g>
<!-- C1 -->
<g id="node10" class="node">
<title>C1</title>
<path fill="#eef9f0" stroke="#448a52" stroke-width="1.2" d="M648,-109C648,-109 602,-109 602,-109 596,-109 590,-103 590,-97 590,-97 590,-85 590,-85 590,-79 596,-73 602,-73 602,-73 648,-73 648,-73 654,-73 660,-79 660,-85 660,-85 660,-97 660,-97 660,-103 654,-109 648,-109"/>
<text text-anchor="middle" x="625" y="-94.2" font-family="Helvetica,sans-Serif" font-size="11.00">District</text>
<text text-anchor="middle" x="625" y="-82.2" font-family="Helvetica,sans-Serif" font-size="11.00">coverage</text>
</g>
<!-- B5&#45;&gt;C1 -->
<g id="edge8" class="edge">
<title>B5&#45;&gt;C1</title>
<path fill="none" stroke="#667085" stroke-width="1.2" d="M535.45,-131.98C550.57,-124.98 567.9,-116.96 583.19,-109.88"/>
<polygon fill="#667085" stroke="#667085" stroke-width="1.2" points="584.29,-112.08 589.61,-106.91 582.23,-107.63 584.29,-112.08"/>
</g>
<!-- C5 -->
<g id="node14" class="node">
<title>C5</title>
<path fill="#eef9f0" stroke="#448a52" stroke-width="1.2" d="M654,-168C654,-168 596,-168 596,-168 590,-168 584,-162 584,-156 584,-156 584,-144 584,-144 584,-138 590,-132 596,-132 596,-132 654,-132 654,-132 660,-132 666,-138 666,-144 666,-144 666,-156 666,-156 666,-162 660,-168 654,-168"/>
<text text-anchor="middle" x="625" y="-153.2" font-family="Helvetica,sans-Serif" font-size="11.00">Blinded</text>
<text text-anchor="middle" x="625" y="-141.2" font-family="Helvetica,sans-Serif" font-size="11.00">retrodiction</text>
</g>
<!-- B5&#45;&gt;C5 -->
<g id="edge13" class="edge">
<title>B5&#45;&gt;C5</title>
<path fill="none" stroke="#667085" stroke-width="1.2" d="M544.34,-150C554.9,-150 566.09,-150 576.63,-150"/>
<polygon fill="#667085" stroke="#667085" stroke-width="1.2" points="576.82,-152.45 583.82,-150 576.82,-147.55 576.82,-152.45"/>
</g>
<!-- C1&#45;&gt;C2 -->
<g id="edge10" class="edge">
<title>C1&#45;&gt;C2</title>
<path fill="none" stroke="#667085" stroke-width="1.2" d="M660.07,-91C671.8,-91 685.33,-91 698.6,-91"/>
<polygon fill="#667085" stroke="#667085" stroke-width="1.2" points="698.93,-93.45 705.93,-91 698.93,-88.55 698.93,-93.45"/>
</g>
<!-- C3 -->
<g id="node12" class="node">
<title>C3</title>
<path fill="#eef9f0" stroke="#448a52" stroke-width="1.2" d="M939.5,-168C939.5,-168 883.5,-168 883.5,-168 877.5,-168 871.5,-162 871.5,-156 871.5,-156 871.5,-144 871.5,-144 871.5,-138 877.5,-132 883.5,-132 883.5,-132 939.5,-132 939.5,-132 945.5,-132 951.5,-138 951.5,-144 951.5,-144 951.5,-156 951.5,-156 951.5,-162 945.5,-168 939.5,-168"/>
<text text-anchor="middle" x="911.5" y="-147.2" font-family="Helvetica,sans-Serif" font-size="11.00">Site search</text>
</g>
<!-- C2&#45;&gt;C3 -->
<g id="edge11" class="edge">
<title>C2&#45;&gt;C3</title>
<path fill="none" stroke="#667085" stroke-width="1.2" d="M808.06,-109.02C826.01,-116.21 846.66,-124.46 864.69,-131.68"/>
<polygon fill="#667085" stroke="#667085" stroke-width="1.2" points="863.8,-133.96 871.21,-134.28 865.62,-129.41 863.8,-133.96"/>
</g>
<!-- C4 -->
<g id="node13" class="node">
<title>C4</title>
<path fill="#eef9f0" stroke="#448a52" stroke-width="1.2" d="M953,-109C953,-109 870,-109 870,-109 864,-109 858,-103 858,-97 858,-97 858,-85 858,-85 858,-79 864,-73 870,-73 870,-73 953,-73 953,-73 959,-73 965,-79 965,-85 965,-85 965,-97 965,-97 965,-103 959,-109 953,-109"/>
<text text-anchor="middle" x="911.5" y="-88.2" font-family="Helvetica,sans-Serif" font-size="11.00">Mixture weights</text>
</g>
<!-- C2&#45;&gt;C4 -->
<g id="edge12" class="edge">
<title>C2&#45;&gt;C4</title>
<path fill="none" stroke="#667085" stroke-width="1.2" d="M818.34,-91C828.84,-91 839.86,-91 850.49,-91"/>
<polygon fill="#667085" stroke="#667085" stroke-width="1.2" points="850.78,-93.45 857.78,-91 850.78,-88.55 850.78,-93.45"/>
</g>
<!-- D1 -->
<g id="node15" class="node">
<title>D1</title>
<path fill="#f8efff" stroke="#7a4ba3" stroke-width="1.2" d="M1091.5,-109C1091.5,-109 1018.5,-109 1018.5,-109 1012.5,-109 1006.5,-103 1006.5,-97 1006.5,-97 1006.5,-85 1006.5,-85 1006.5,-79 1012.5,-73 1018.5,-73 1018.5,-73 1091.5,-73 1091.5,-73 1097.5,-73 1103.5,-79 1103.5,-85 1103.5,-85 1103.5,-97 1103.5,-97 1103.5,-103 1097.5,-109 1091.5,-109"/>
<text text-anchor="middle" x="1055" y="-88.2" font-family="Helvetica,sans-Serif" font-size="11.00">Coverage&#45;vs&#45;k</text>
</g>
<!-- C3&#45;&gt;D1 -->
<g id="edge14" class="edge">
<title>C3&#45;&gt;D1</title>
<path fill="none" stroke="#667085" stroke-width="1.2" d="M951.54,-133.72C967.72,-126.98 986.68,-119.07 1003.87,-111.9"/>
<polygon fill="#667085" stroke="#667085" stroke-width="1.2" points="1005.09,-114.05 1010.61,-109.09 1003.2,-109.53 1005.09,-114.05"/>
</g>
<!-- D2 -->
<g id="node16" class="node">
<title>D2</title>
<path fill="#f8efff" stroke="#7a4ba3" stroke-width="1.2" d="M1093,-168C1093,-168 1017,-168 1017,-168 1011,-168 1005,-162 1005,-156 1005,-156 1005,-144 1005,-144 1005,-138 1011,-132 1017,-132 1017,-132 1093,-132 1093,-132 1099,-132 1105,-138 1105,-144 1105,-144 1105,-156 1105,-156 1105,-162 1099,-168 1093,-168"/>
<text text-anchor="middle" x="1055" y="-153.2" font-family="Helvetica,sans-Serif" font-size="11.00">Recommended</text>
<text text-anchor="middle" x="1055" y="-141.2" font-family="Helvetica,sans-Serif" font-size="11.00">sites</text>
</g>
<!-- C3&#45;&gt;D2 -->
<g id="edge15" class="edge">
<title>C3&#45;&gt;D2</title>
<path fill="none" stroke="#667085" stroke-width="1.2" d="M951.54,-150C965.87,-150 982.39,-150 997.92,-150"/>
<polygon fill="#667085" stroke="#667085" stroke-width="1.2" points="997.97,-152.45 1004.97,-150 997.97,-147.55 997.97,-152.45"/>
</g>
<!-- C4&#45;&gt;D1 -->
<g id="edge16" class="edge">
<title>C4&#45;&gt;D1</title>
<path fill="none" stroke="#667085" stroke-width="1.2" d="M965.19,-91C976.28,-91 988,-91 999.16,-91"/>
<polygon fill="#667085" stroke="#667085" stroke-width="1.2" points="999.4,-93.45 1006.4,-91 999.4,-88.55 999.4,-93.45"/>
</g>
<!-- D3 -->
<g id="node17" class="node">
<title>D3</title>
<path fill="#f8efff" stroke="#7a4ba3" stroke-width="1.2" d="M1081,-227C1081,-227 1029,-227 1029,-227 1023,-227 1017,-221 1017,-215 1017,-215 1017,-203 1017,-203 1017,-197 1023,-191 1029,-191 1029,-191 1081,-191 1081,-191 1087,-191 1093,-197 1093,-203 1093,-203 1093,-215 1093,-215 1093,-221 1087,-227 1081,-227"/>
<text text-anchor="middle" x="1055" y="-212.2" font-family="Helvetica,sans-Serif" font-size="11.00">Sensitivity</text>
<text text-anchor="middle" x="1055" y="-200.2" font-family="Helvetica,sans-Serif" font-size="11.00">results</text>
</g>
<!-- C5&#45;&gt;D3 -->
<g id="edge17" class="edge">
<title>C5&#45;&gt;D3</title>
<path fill="none" stroke="#667085" stroke-width="1.2" d="M666.27,-155.55C746.64,-166.63 926.4,-191.41 1009.86,-202.92"/>
<polygon fill="#667085" stroke="#667085" stroke-width="1.2" points="1009.64,-205.36 1016.91,-203.89 1010.31,-200.5 1009.64,-205.36"/>
</g>
<!-- D4 -->
<g id="node18" class="node">
<title>D4</title>
<path fill="#f8efff" stroke="#7a4ba3" stroke-width="1.2" d="M1235,-168C1235,-168 1157,-168 1157,-168 1151,-168 1145,-162 1145,-156 1145,-156 1145,-144 1145,-144 1145,-138 1151,-132 1157,-132 1157,-132 1235,-132 1235,-132 1241,-132 1247,-138 1247,-144 1247,-144 1247,-156 1247,-156 1247,-162 1241,-168 1235,-168"/>
<text text-anchor="middle" x="1196" y="-147.2" font-family="Helvetica,sans-Serif" font-size="11.00">Figures + Atlas</text>
</g>
<!-- D1&#45;&gt;D4 -->
<g id="edge18" class="edge">
<title>D1&#45;&gt;D4</title>
<path fill="none" stroke="#667085" stroke-width="1.2" d="M1098.46,-109.02C1113.41,-115.37 1130.34,-122.55 1145.8,-129.11"/>
<polygon fill="#667085" stroke="#667085" stroke-width="1.2" points="1144.92,-131.4 1152.32,-131.88 1146.83,-126.89 1144.92,-131.4"/>
</g>
<!-- D2&#45;&gt;D4 -->
<g id="edge19" class="edge">
<title>D2&#45;&gt;D4</title>
<path fill="none" stroke="#667085" stroke-width="1.2" d="M1105.01,-150C1115.52,-150 1126.72,-150 1137.53,-150"/>
<polygon fill="#667085" stroke="#667085" stroke-width="1.2" points="1137.56,-152.45 1144.56,-150 1137.56,-147.55 1137.56,-152.45"/>
</g>
<!-- D3&#45;&gt;D4 -->
<g id="edge20" class="edge">
<title>D3&#45;&gt;D4</title>
<path fill="none" stroke="#667085" stroke-width="1.2" d="M1093.25,-193.19C1109.29,-186.38 1128.28,-178.32 1145.49,-171.02"/>
<polygon fill="#667085" stroke="#667085" stroke-width="1.2" points="1146.75,-173.14 1152.24,-168.15 1144.83,-168.63 1146.75,-173.14"/>
</g>
</g>
</svg>
