<?xml version="1.0" encoding="UTF-8" standalone="no"?>
<!DOCTYPE svg PUBLIC "-//W3C//DTD SVG 1.1//EN"
 "http://www.w3.org/Graphics/SVG/1.1/DTD/svg11.dtd">
<!-- Generated by graphviz version 2.42.4 (0)
 -->
<!-- Title: G Pages: 1 -->
<svg width="1677pt" height="393pt"
 viewBox="0.00 0.00 1676.80 392.80" xmlns="http://www.w3.org/2000/svg" xmlns:xlink="http://www.w3.org/1999/xlink">
<g id="graph0" class="graph" transform="scale(1 1) rotate(0) translate(14.4 378.4)">
<title>G</title>
<polygon fill="white" stroke="transparent" points="-14.4,14.4 -14.4,-378.4 1662.4,-378.4 1662.4,14.4 -14.4,14.4"/>
<text text-anchor="middle" x="824" y="-345.6" font-family="Helvetica,sans-Serif" font-size="18.00">VenomGap — System Architecture</text>
<g id="clust1" class="cluster">
<title>cluster_s</title>
<path fill="white" stroke="#9cb4e5" stroke-width="1.5" d="M12,-8C12,-8 184,-8 184,-8 190,-8 196,-14 196,-20 196,-20 196,-316 196,-316 196,-322 190,-328 184,-328 184,-328 12,-328 12,-328 6,-328 0,-322 0,-316 0,-316 0,-20 0,-20 0,-14 6,-8 12,-8"/>
<text text-anchor="middle" x="98" y="-309.6" font-family="Helvetica,sans-Serif" font-size="18.00">Evidence &amp; Sources</text>
</g>
<g id="clust2" class="cluster">
<title>cluster_m</title>
<path fill="white" stroke="#e7b47a" stroke-width="1.5" d="M232,-157C232,-157 759,-157 759,-157 765,-157 771,-163 771,-169 771,-169 771,-311 771,-311 771,-317 765,-323 759,-323 759,-323 232,-323 232,-323 226,-323 220,-317 220,-311 220,-311 220,-169 220,-169 220,-163 226,-157 232,-157"/>
<text text-anchor="middle" x="495.5" y="-304.6" font-family="Helvetica,sans-Serif" font-size="18.00">Ingestion &amp; Scientific Model</text>
</g>
<g id="clust3" class="cluster">
<title>cluster_d</title>
<path fill="white" stroke="#86b892" stroke-width="1.5" d="M807,-37C807,-37 1115,-37 1115,-37 1121,-37 1127,-43 1127,-49 1127,-49 1127,-225 1127,-225 1127,-231 1121,-237 1115,-237 1115,-237 807,-237 807,-237 801,-237 795,-231 795,-225 795,-225 795,-49 795,-49 795,-43 801,-37 807,-37"/>
<text text-anchor="middle" x="961" y="-218.6" font-family="Helvetica,sans-Serif" font-size="18.00">Decision &amp; Validation</text>
</g>
<g id="clust4" class="cluster">
<title>cluster_o</title>
<path fill="white" stroke="#b79ad2" stroke-width="1.5" d="M1163,-52C1163,-52 1628,-52 1628,-52 1634,-52 1640,-58 1640,-64 1640,-64 1640,-180 1640,-180 1640,-186 1634,-192 1628,-192 1628,-192 1163,-192 1163,-192 1157,-192 1151,-186 1151,-180 1151,-180 1151,-64 1151,-64 1151,-58 1157,-52 1163,-52"/>
<text text-anchor="middle" x="1395.5" y="-173.6" font-family="Helvetica,sans-Serif" font-size="18.00">Reproducible Outputs</text>
</g>
<!-- A1 -->
<g id="node1" class="node">
<title>A1</title>
<path fill="#eef4ff" stroke="#4a67a1" stroke-width="1.2" d="M167,-232C167,-232 28,-232 28,-232 22,-232 16,-226 16,-220 16,-220 16,-208 16,-208 16,-202 22,-196 28,-196 28,-196 167,-196 167,-196 173,-196 179,-202 179,-208 179,-208 179,-220 179,-220 179,-226 173,-232 167,-232"/>
<text text-anchor="middle" x="97.5" y="-217.2" font-family="Helvetica,sans-Serif" font-size="11.00">Venom proteomes</text>
<text text-anchor="middle" x="97.5" y="-205.2" font-family="Helvetica,sans-Serif" font-size="11.00">29 populations / 9 species</text>
</g>
<!-- B1 -->
<g id="node6" class="node">
<title>B1</title>
<path fill="#fff3e6" stroke="#bd6b22" stroke-width="1.2" d="M348.5,-227C348.5,-227 246.5,-227 246.5,-227 240.5,-227 234.5,-221 234.5,-215 234.5,-215 234.5,-203 234.5,-203 234.5,-197 240.5,-191 246.5,-191 246.5,-191 348.5,-191 348.5,-191 354.5,-191 360.5,-197 360.5,-203 360.5,-203 360.5,-215 360.5,-215 360.5,-221 354.5,-227 348.5,-227"/>
<text text-anchor="middle" x="297.5" y="-212.2" font-family="Helvetica,sans-Serif" font-size="11.00">Composition parser</text>
<text text-anchor="middle" x="297.5" y="-200.2" font-family="Helvetica,sans-Serif" font-size="11.00">family mapping</text>
</g>
<!-- A1&#45;&gt;B1 -->
<g id="edge1" class="edge">
<title>A1&#45;&gt;B1</title>
<path fill="none" stroke="#667085" stroke-width="1.2" d="M179.03,-211.97C195,-211.56 211.64,-211.14 227.19,-210.75"/>
<polygon fill="#667085" stroke="#667085" stroke-width="1.2" points="227.32,-213.2 234.26,-210.57 227.2,-208.3 227.32,-213.2"/>
</g>
<!-- A2 -->
<g id="node2" class="node">
<title>A2</title>
<path fill="#eef4ff" stroke="#4a67a1" stroke-width="1.2" d="M141,-292C141,-292 54,-292 54,-292 48,-292 42,-286 42,-280 42,-280 42,-268 42,-268 42,-262 48,-256 54,-256 54,-256 141,-256 141,-256 147,-256 153,-262 153,-268 153,-268 153,-280 153,-280 153,-286 147,-292 141,-292"/>
<text text-anchor="middle" x="97.5" y="-277.2" font-family="Helvetica,sans-Serif" font-size="11.00">UniProt / ToxProt</text>
<text text-anchor="middle" x="97.5" y="-265.2" font-family="Helvetica,sans-Serif" font-size="11.00">toxin sequences</text>
</g>
<!-- B2 -->
<g id="node7" class="node">
<title>B2</title>
<path fill="#fff3e6" stroke="#bd6b22" stroke-width="1.2" d="M355,-287C355,-287 240,-287 240,-287 234,-287 228,-281 228,-275 228,-275 228,-263 228,-263 228,-257 234,-251 240,-251 240,-251 355,-251 355,-251 361,-251 367,-257 367,-263 367,-263 367,-275 367,-275 367,-281 361,-287 355,-287"/>
<text text-anchor="middle" x="297.5" y="-272.2" font-family="Helvetica,sans-Serif" font-size="11.00">Sequence fetch/cache</text>
<text text-anchor="middle" x="297.5" y="-260.2" font-family="Helvetica,sans-Serif" font-size="11.00">family classification</text>
</g>
<!-- A2&#45;&gt;B2 -->
<g id="edge2" class="edge">
<title>A2&#45;&gt;B2</title>
<path fill="none" stroke="#667085" stroke-width="1.2" d="M153.13,-272.62C173.99,-272.09 198.17,-271.48 220.66,-270.92"/>
<polygon fill="#667085" stroke="#667085" stroke-width="1.2" points="220.96,-273.36 227.9,-270.73 220.84,-268.46 220.96,-273.36"/>
</g>
<!-- A3 -->
<g id="node3" class="node">
<title>A3</title>
<path fill="#eef4ff" stroke="#4a67a1" stroke-width="1.2" d="M162.5,-172C162.5,-172 32.5,-172 32.5,-172 26.5,-172 20.5,-166 20.5,-160 20.5,-160 20.5,-148 20.5,-148 20.5,-142 26.5,-136 32.5,-136 32.5,-136 162.5,-136 162.5,-136 168.5,-136 174.5,-142 174.5,-148 174.5,-148 174.5,-160 174.5,-160 174.5,-166 168.5,-172 162.5,-172"/>
<text text-anchor="middle" x="97.5" y="-157.2" font-family="Helvetica,sans-Serif" font-size="11.00">GBIF + published ranges</text>
<text text-anchor="middle" x="97.5" y="-145.2" font-family="Helvetica,sans-Serif" font-size="11.00">species presence</text>
</g>
<!-- B3 -->
<g id="node8" class="node">
<title>B3</title>
<path fill="#fff3e6" stroke="#bd6b22" stroke-width="1.2" d="M559,-201C559,-201 419,-201 419,-201 413,-201 407,-195 407,-189 407,-189 407,-177 407,-177 407,-171 413,-165 419,-165 419,-165 559,-165 559,-165 565,-165 571,-171 571,-177 571,-177 571,-189 571,-189 571,-195 565,-201 559,-201"/>
<text text-anchor="middle" x="489" y="-186.2" font-family="Helvetica,sans-Serif" font-size="11.00">Spatial composition model</text>
<text text-anchor="middle" x="489" y="-174.2" font-family="Helvetica,sans-Serif" font-size="11.00">LOO&#45;CV length scale</text>
</g>
<!-- A3&#45;&gt;B3 -->
<g id="edge3" class="edge">
<title>A3&#45;&gt;B3</title>
<path fill="none" stroke="#667085" stroke-width="1.2" d="M174.52,-159.66C239.03,-164.46 331.65,-171.36 399.48,-176.41"/>
<polygon fill="#667085" stroke="#667085" stroke-width="1.2" points="399.63,-178.88 406.8,-176.95 400,-173.99 399.63,-178.88"/>
</g>
<!-- A4 -->
<g id="node4" class="node">
<title>A4</title>
<path fill="#eef4ff" stroke="#4a67a1" stroke-width="1.2" d="M159.5,-112C159.5,-112 35.5,-112 35.5,-112 29.5,-112 23.5,-106 23.5,-100 23.5,-100 23.5,-88 23.5,-88 23.5,-82 29.5,-76 35.5,-76 35.5,-76 159.5,-76 159.5,-76 165.5,-76 171.5,-82 171.5,-88 171.5,-88 171.5,-100 171.5,-100 171.5,-106 165.5,-112 159.5,-112"/>
<text text-anchor="middle" x="97.5" y="-97.2" font-family="Helvetica,sans-Serif" font-size="11.00">Snakebite burden</text>
<text text-anchor="middle" x="97.5" y="-85.2" font-family="Helvetica,sans-Serif" font-size="11.00">state + district weights</text>
</g>
<!-- C1 -->
<g id="node11" class="node">
<title>C1</title>
<path fill="#eef9f0" stroke="#448a52" stroke-width="1.2" d="M918,-201C918,-201 825,-201 825,-201 819,-201 813,-195 813,-189 813,-189 813,-177 813,-177 813,-171 819,-165 825,-165 825,-165 918,-165 918,-165 924,-165 930,-171 930,-177 930,-177 930,-189 930,-189 930,-195 924,-201 918,-201"/>
<text text-anchor="middle" x="871.5" y="-186.2" font-family="Helvetica,sans-Serif" font-size="11.00">Burden&#45;weighted</text>
<text text-anchor="middle" x="871.5" y="-174.2" font-family="Helvetica,sans-Serif" font-size="11.00">national objective</text>
</g>
<!-- A4&#45;&gt;C1 -->
<g id="edge4" class="edge">
<title>A4&#45;&gt;C1</title>
<path fill="none" stroke="#667085" stroke-width="1.2" d="M171.91,-94.8C296.35,-97.37 556.16,-107.93 771,-151 785.53,-153.91 800.91,-158.22 815.12,-162.74"/>
<polygon fill="#667085" stroke="#667085" stroke-width="1.2" points="814.58,-165.14 821.99,-164.97 816.09,-160.48 814.58,-165.14"/>
</g>
<!-- A5 -->
<g id="node5" class="node">
<title>A5</title>
<path fill="#eef4ff" stroke="#4a67a1" stroke-width="1.2" d="M155.5,-52C155.5,-52 39.5,-52 39.5,-52 33.5,-52 27.5,-46 27.5,-40 27.5,-40 27.5,-28 27.5,-28 27.5,-22 33.5,-16 39.5,-16 39.5,-16 155.5,-16 155.5,-16 161.5,-16 167.5,-22 167.5,-28 167.5,-28 167.5,-40 167.5,-40 167.5,-46 161.5,-52 155.5,-52"/>
<text text-anchor="middle" x="97.5" y="-37.2" font-family="Helvetica,sans-Serif" font-size="11.00">Calibration + held&#45;out</text>
<text text-anchor="middle" x="97.5" y="-25.2" font-family="Helvetica,sans-Serif" font-size="11.00">antivenomics studies</text>
</g>
<!-- C4 -->
<g id="node14" class="node">
<title>C4</title>
<path fill="#eef9f0" stroke="#448a52" stroke-width="1.2" d="M900.5,-81C900.5,-81 842.5,-81 842.5,-81 836.5,-81 830.5,-75 830.5,-69 830.5,-69 830.5,-57 830.5,-57 830.5,-51 836.5,-45 842.5,-45 842.5,-45 900.5,-45 900.5,-45 906.5,-45 912.5,-51 912.5,-57 912.5,-57 912.5,-69 912.5,-69 912.5,-75 906.5,-81 900.5,-81"/>
<text text-anchor="middle" x="871.5" y="-66.2" font-family="Helvetica,sans-Serif" font-size="11.00">Blinded</text>
<text text-anchor="middle" x="871.5" y="-54.2" font-family="Helvetica,sans-Serif" font-size="11.00">retrodiction</text>
</g>
<!-- A5&#45;&gt;C4 -->
<g id="edge5" class="edge">
<title>A5&#45;&gt;C4</title>
<path fill="none" stroke="#667085" stroke-width="1.2" d="M167.69,-36.6C322.06,-42.4 691.36,-56.27 822.94,-61.21"/>
<polygon fill="#667085" stroke="#667085" stroke-width="1.2" points="823.06,-63.67 830.14,-61.48 823.24,-58.77 823.06,-63.67"/>
</g>
<!-- B1&#45;&gt;B3 -->
<g id="edge6" class="edge">
<title>B1&#45;&gt;B3</title>
<path fill="none" stroke="#667085" stroke-width="1.2" d="M360.55,-200.49C373.03,-198.77 386.37,-196.94 399.54,-195.14"/>
<polygon fill="#667085" stroke="#667085" stroke-width="1.2" points="400.24,-197.51 406.84,-194.14 399.57,-192.66 400.24,-197.51"/>
</g>
<!-- B5 -->
<g id="node10" class="node">
<title>B5</title>
<path fill="#fff3e6" stroke="#bd6b22" stroke-width="1.2" d="M751,-201C751,-201 623,-201 623,-201 617,-201 611,-195 611,-189 611,-189 611,-177 611,-177 611,-171 617,-165 623,-165 623,-165 751,-165 751,-165 757,-165 763,-171 763,-177 763,-177 763,-189 763,-189 763,-195 757,-201 751,-201"/>
<text text-anchor="middle" x="687" y="-186.2" font-family="Helvetica,sans-Serif" font-size="11.00">Stoichiometric coverage</text>
<text text-anchor="middle" x="687" y="-174.2" font-family="Helvetica,sans-Serif" font-size="11.00">finite antibody budget</text>
</g>
<!-- B1&#45;&gt;B5 -->
<g id="edge7" class="edge">
<title>B1&#45;&gt;B5</title>
<path fill="none" stroke="#667085" stroke-width="1.2" d="M360.74,-214.91C416.16,-218.99 499.32,-222.2 571,-213 587.65,-210.86 605.34,-207.05 621.72,-202.85"/>
<polygon fill="#667085" stroke="#667085" stroke-width="1.2" points="622.5,-205.18 628.65,-201.03 621.26,-200.44 622.5,-205.18"/>
</g>
<!-- B4 -->
<g id="node9" class="node">
<title>B4</title>
<path fill="#fff3e6" stroke="#bd6b22" stroke-width="1.2" d="M548.5,-287C548.5,-287 429.5,-287 429.5,-287 423.5,-287 417.5,-281 417.5,-275 417.5,-275 417.5,-263 417.5,-263 417.5,-257 423.5,-251 429.5,-251 429.5,-251 548.5,-251 548.5,-251 554.5,-251 560.5,-257 560.5,-263 560.5,-263 560.5,-275 560.5,-275 560.5,-281 554.5,-287 548.5,-287"/>
<text text-anchor="middle" x="489" y="-272.2" font-family="Helvetica,sans-Serif" font-size="11.00">Cross&#45;reactivity model</text>
<text text-anchor="middle" x="489" y="-260.2" font-family="Helvetica,sans-Serif" font-size="11.00">identity → recognition</text>
</g>
<!-- B2&#45;&gt;B4 -->
<g id="edge8" class="edge">
<title>B2&#45;&gt;B4</title>
<path fill="none" stroke="#667085" stroke-width="1.2" d="M367.18,-269C381.07,-269 395.77,-269 409.96,-269"/>
<polygon fill="#667085" stroke="#667085" stroke-width="1.2" points="410.32,-271.45 417.32,-269 410.32,-266.55 410.32,-271.45"/>
</g>
<!-- B3&#45;&gt;B5 -->
<g id="edge9" class="edge">
<title>B3&#45;&gt;B5</title>
<path fill="none" stroke="#667085" stroke-width="1.2" d="M571.14,-183C581.93,-183 593.01,-183 603.83,-183"/>
<polygon fill="#667085" stroke="#667085" stroke-width="1.2" points="603.9,-185.45 610.9,-183 603.9,-180.55 603.9,-185.45"/>
</g>
<!-- B4&#45;&gt;B5 -->
<g id="edge10" class="edge">
<title>B4&#45;&gt;B5</title>
<path fill="none" stroke="#667085" stroke-width="1.2" d="M531.09,-250.97C562.45,-237.21 605.71,-218.23 638.54,-203.82"/>
<polygon fill="#667085" stroke="#667085" stroke-width="1.2" points="639.54,-206.06 644.97,-201 637.57,-201.57 639.54,-206.06"/>
</g>
<!-- B5&#45;&gt;C1 -->
<g id="edge11" class="edge">
<title>B5&#45;&gt;C1</title>
<path fill="none" stroke="#667085" stroke-width="1.2" d="M763.02,-183C777.17,-183 791.85,-183 805.66,-183"/>
<polygon fill="#667085" stroke="#667085" stroke-width="1.2" points="805.79,-185.45 812.79,-183 805.79,-180.55 805.79,-185.45"/>
</g>
<!-- B5&#45;&gt;C4 -->
<g id="edge14" class="edge">
<title>B5&#45;&gt;C4</title>
<path fill="none" stroke="#667085" stroke-width="1.2" d="M705.92,-164.76C726.11,-145 760.62,-113.55 795,-93 803.85,-87.71 813.81,-82.99 823.51,-78.95"/>
<polygon fill="#667085" stroke="#667085" stroke-width="1.2" points="824.6,-81.16 830.18,-76.27 822.77,-76.61 824.6,-81.16"/>
</g>
<!-- C5 -->
<g id="node15" class="node">
<title>C5</title>
<path fill="#eef9f0" stroke="#448a52" stroke-width="1.2" d="M928,-141C928,-141 815,-141 815,-141 809,-141 803,-135 803,-129 803,-129 803,-117 803,-117 803,-111 809,-105 815,-105 815,-105 928,-105 928,-105 934,-105 940,-111 940,-117 940,-117 940,-129 940,-129 940,-135 934,-141 928,-141"/>
<text text-anchor="middle" x="871.5" y="-120.2" font-family="Helvetica,sans-Serif" font-size="11.00">Sensitivity + controls</text>
</g>
<!-- B5&#45;&gt;C5 -->
<g id="edge15" class="edge">
<title>B5&#45;&gt;C5</title>
<path fill="none" stroke="#667085" stroke-width="1.2" d="M742.76,-165C763.5,-158.18 787.27,-150.36 808.62,-143.34"/>
<polygon fill="#667085" stroke="#667085" stroke-width="1.2" points="809.58,-145.61 815.47,-141.09 808.05,-140.95 809.58,-145.61"/>
</g>
<!-- C2 -->
<g id="node12" class="node">
<title>C2</title>
<path fill="#eef9f0" stroke="#448a52" stroke-width="1.2" d="M1107,-141C1107,-141 992,-141 992,-141 986,-141 980,-135 980,-129 980,-129 980,-117 980,-117 980,-111 986,-105 992,-105 992,-105 1107,-105 1107,-105 1113,-105 1119,-111 1119,-117 1119,-117 1119,-129 1119,-129 1119,-135 1113,-141 1107,-141"/>
<text text-anchor="middle" x="1049.5" y="-126.2" font-family="Helvetica,sans-Serif" font-size="11.00">Site optimisation</text>
<text text-anchor="middle" x="1049.5" y="-114.2" font-family="Helvetica,sans-Serif" font-size="11.00">greedy + local search</text>
</g>
<!-- C1&#45;&gt;C2 -->
<g id="edge12" class="edge">
<title>C1&#45;&gt;C2</title>
<path fill="none" stroke="#667085" stroke-width="1.2" d="M925.31,-165C945.23,-158.21 968.03,-150.43 988.56,-143.43"/>
<polygon fill="#667085" stroke="#667085" stroke-width="1.2" points="989.59,-145.67 995.43,-141.09 988.01,-141.03 989.59,-145.67"/>
</g>
<!-- C3 -->
<g id="node13" class="node">
<title>C3</title>
<path fill="#eef9f0" stroke="#448a52" stroke-width="1.2" d="M1088,-201C1088,-201 1011,-201 1011,-201 1005,-201 999,-195 999,-189 999,-189 999,-177 999,-177 999,-171 1005,-165 1011,-165 1011,-165 1088,-165 1088,-165 1094,-165 1100,-171 1100,-177 1100,-177 1100,-189 1100,-189 1100,-195 1094,-201 1088,-201"/>
<text text-anchor="middle" x="1049.5" y="-186.2" font-family="Helvetica,sans-Serif" font-size="11.00">Mixture&#45;weight</text>
<text text-anchor="middle" x="1049.5" y="-174.2" font-family="Helvetica,sans-Serif" font-size="11.00">optimisation</text>
</g>
<!-- C1&#45;&gt;C3 -->
<g id="edge13" class="edge">
<title>C1&#45;&gt;C3</title>
<path fill="none" stroke="#667085" stroke-width="1.2" d="M930.13,-183C949.86,-183 971.92,-183 991.59,-183"/>
<polygon fill="#667085" stroke="#667085" stroke-width="1.2" points="991.72,-185.45 998.72,-183 991.72,-180.55 991.72,-185.45"/>
</g>
<!-- D1 -->
<g id="node16" class="node">
<title>D1</title>
<path fill="#f8efff" stroke="#7a4ba3" stroke-width="1.2" d="M1250,-109.73C1250,-111.53 1229.61,-113 1204.5,-113 1179.39,-113 1159,-111.53 1159,-109.73 1159,-109.73 1159,-80.27 1159,-80.27 1159,-78.47 1179.39,-77 1204.5,-77 1229.61,-77 1250,-78.47 1250,-80.27 1250,-80.27 1250,-109.73 1250,-109.73"/>
<path fill="none" stroke="#7a4ba3" stroke-width="1.2" d="M1250,-109.73C1250,-107.92 1229.61,-106.45 1204.5,-106.45 1179.39,-106.45 1159,-107.92 1159,-109.73"/>
<text text-anchor="middle" x="1204.5" y="-92.2" font-family="Helvetica,sans-Serif" font-size="11.00">results/*.json</text>
</g>
<!-- C2&#45;&gt;D1 -->
<g id="edge16" class="edge">
<title>C2&#45;&gt;D1</title>
<path fill="none" stroke="#667085" stroke-width="1.2" d="M1119.39,-110.39C1130.22,-108.41 1141.25,-106.39 1151.61,-104.5"/>
<polygon fill="#667085" stroke="#667085" stroke-width="1.2" points="1152.22,-106.88 1158.66,-103.21 1151.33,-102.06 1152.22,-106.88"/>
</g>
<!-- C3&#45;&gt;D1 -->
<g id="edge17" class="edge">
<title>C3&#45;&gt;D1</title>
<path fill="none" stroke="#667085" stroke-width="1.2" d="M1100.39,-165.74C1109.45,-161.96 1118.66,-157.68 1127,-153 1144.84,-142.99 1163.15,-129.25 1177.39,-117.66"/>
<polygon fill="#667085" stroke="#667085" stroke-width="1.2" points="1178.99,-119.51 1182.83,-113.17 1175.87,-115.73 1178.99,-119.51"/>
</g>
<!-- C4&#45;&gt;D1 -->
<g id="edge18" class="edge">
<title>C4&#45;&gt;D1</title>
<path fill="none" stroke="#667085" stroke-width="1.2" d="M912.73,-64.84C962.99,-67.4 1051.57,-72.8 1127,-82 1134.88,-82.96 1143.19,-84.17 1151.31,-85.46"/>
<polygon fill="#667085" stroke="#667085" stroke-width="1.2" points="1151.4,-87.96 1158.7,-86.66 1152.19,-83.12 1151.4,-87.96"/>
</g>
<!-- C5&#45;&gt;D1 -->
<g id="edge19" class="edge">
<title>C5&#45;&gt;D1</title>
<path fill="none" stroke="#667085" stroke-width="1.2" d="M926.03,-104.97C943.08,-100.07 962.15,-95.44 980,-93 1044.73,-84.14 1061.67,-92.15 1127,-93 1134.83,-93.1 1143.11,-93.26 1151.22,-93.45"/>
<polygon fill="#667085" stroke="#667085" stroke-width="1.2" points="1151.55,-95.91 1158.6,-93.63 1151.66,-91.01 1151.55,-95.91"/>
</g>
<!-- D2 -->
<g id="node17" class="node">
<title>D2</title>
<path fill="#f8efff" stroke="#7a4ba3" stroke-width="1.2" d="M1396,-96C1396,-96 1302,-96 1302,-96 1296,-96 1290,-90 1290,-84 1290,-84 1290,-72 1290,-72 1290,-66 1296,-60 1302,-60 1302,-60 1396,-60 1396,-60 1402,-60 1408,-66 1408,-72 1408,-72 1408,-84 1408,-84 1408,-90 1402,-96 1396,-96"/>
<text text-anchor="middle" x="1349" y="-75.2" font-family="Helvetica,sans-Serif" font-size="11.00">Generated figures</text>
</g>
<!-- D1&#45;&gt;D2 -->
<g id="edge20" class="edge">
<title>D1&#45;&gt;D2</title>
<path fill="none" stroke="#667085" stroke-width="1.2" d="M1250.2,-89.67C1260.51,-88.44 1271.69,-87.1 1282.67,-85.79"/>
<polygon fill="#667085" stroke="#667085" stroke-width="1.2" points="1283.19,-88.2 1289.86,-84.94 1282.61,-83.33 1283.19,-88.2"/>
</g>
<!-- D3 -->
<g id="node18" class="node">
<title>D3</title>
<path fill="#f8efff" stroke="#7a4ba3" stroke-width="1.2" d="M1366,-156C1366,-156 1332,-156 1332,-156 1326,-156 1320,-150 1320,-144 1320,-144 1320,-132 1320,-132 1320,-126 1326,-120 1332,-120 1332,-120 1366,-120 1366,-120 1372,-120 1378,-126 1378,-132 1378,-132 1378,-144 1378,-144 1378,-150 1372,-156 1366,-156"/>
<text text-anchor="middle" x="1349" y="-135.2" font-family="Helvetica,sans-Serif" font-size="11.00">FastAPI</text>
</g>
<!-- D1&#45;&gt;D3 -->
<g id="edge21" class="edge">
<title>D1&#45;&gt;D3</title>
<path fill="none" stroke="#667085" stroke-width="1.2" d="M1250.2,-108.49C1270.41,-114.59 1293.94,-121.69 1312.86,-127.4"/>
<polygon fill="#667085" stroke="#667085" stroke-width="1.2" points="1312.2,-129.76 1319.61,-129.43 1313.61,-125.06 1312.2,-129.76"/>
</g>
<!-- D4 -->
<g id="node19" class="node">
<title>D4</title>
<path fill="#f8efff" stroke="#7a4ba3" stroke-width="1.2" d="M1620,-156C1620,-156 1460,-156 1460,-156 1454,-156 1448,-150 1448,-144 1448,-144 1448,-132 1448,-132 1448,-126 1454,-120 1460,-120 1460,-120 1620,-120 1620,-120 1626,-120 1632,-126 1632,-132 1632,-132 1632,-144 1632,-144 1632,-150 1626,-156 1620,-156"/>
<text text-anchor="middle" x="1540" y="-141.2" font-family="Helvetica,sans-Serif" font-size="11.00">React / Vite dashboard</text>
<text text-anchor="middle" x="1540" y="-129.2" font-family="Helvetica,sans-Serif" font-size="11.00">Atlas • Mixture • Retrodiction</text>
</g>
<!-- D3&#45;&gt;D4 -->
<g id="edge22" class="edge">
<title>D3&#45;&gt;D4</title>
<path fill="none" stroke="#667085" stroke-width="1.2" d="M1378.3,-138C1395.19,-138 1417.75,-138 1440.62,-138"/>
<polygon fill="#667085" stroke="#667085" stroke-width="1.2" points="1440.72,-140.45 1447.72,-138 1440.72,-135.55 1440.72,-140.45"/>
</g>
</g>
</svg>
